<svg width="19" height="17" viewBox="0 0 19 17" fill="none" xmlns="http://www.w3.org/2000/svg">
<path d="M9.5 16.9039C9.22951 16.9039 8.96873 16.8059 8.7655 16.6279C7.99794 15.9567 7.25793 15.326 6.60503 14.7697L6.6017 14.7668C4.68752 13.1356 3.03456 11.7269 1.88446 10.3392C0.598824 8.78782 0 7.31693 0 5.71006C0 4.14886 0.535332 2.70855 1.50728 1.65427C2.49082 0.587517 3.84039 0 5.3078 0C6.40456 0 7.40897 0.346741 8.29308 1.03051C8.73926 1.37566 9.14369 1.79807 9.5 2.29078C9.85645 1.79807 10.2607 1.37566 10.7071 1.03051C11.5912 0.346741 12.5956 0 13.6923 0C15.1596 0 16.5093 0.587517 17.4929 1.65427C18.4648 2.70855 19 4.14886 19 5.71006C19 7.31693 18.4013 8.78782 17.1157 10.339C15.9656 11.7269 14.3128 13.1354 12.3989 14.7665C11.7448 15.3237 11.0037 15.9554 10.2344 16.6282C10.0313 16.8059 9.77035 16.9039 9.5 16.9039V16.9039ZM5.3078 1.11299C4.15495 1.11299 3.09588 1.57309 2.32542 2.40863C1.54352 3.25678 1.11285 4.42921 1.11285 5.71006C1.11285 7.06151 1.61513 8.27017 2.74131 9.62901C3.8298 10.9425 5.44884 12.3222 7.32345 13.9198L7.32693 13.9227C7.98228 14.4812 8.7252 15.1144 9.49841 15.7905C10.2763 15.1131 11.0203 14.4789 11.677 13.9195C13.5514 12.3219 15.1703 10.9425 16.2588 9.62901C17.3849 8.27017 17.8872 7.06151 17.8872 5.71006C17.8872 4.42921 17.4565 3.25678 16.6746 2.40863C15.9043 1.57309 14.8451 1.11299 13.6923 1.11299C12.8478 1.11299 12.0724 1.38145 11.3878 1.91084C10.7777 2.38283 10.3526 2.97948 10.1035 3.39696C9.97532 3.61164 9.74976 3.73978 9.5 3.73978C9.25024 3.73978 9.02468 3.61164 8.89654 3.39696C8.6475 2.97948 8.22248 2.38283 7.61221 1.91084C6.92757 1.38145 6.15218 1.11299 5.3078 1.11299V1.11299Z" fill="#C6A464"/>
</svg>
