<svg width="21" height="19" viewBox="0 0 21 19" fill="none" xmlns="http://www.w3.org/2000/svg">
<path d="M17.6746 3.40863C16.9043 2.57309 15.8451 2.11299 14.6923 2.11299C13.8478 2.11299 13.0724 2.38145 12.3878 2.91084M17.6746 3.40863L9.89654 4.39696C10.0247 4.61164 10.2502 4.73978 10.5 4.73978C10.7498 4.73978 10.9753 4.61164 11.1035 4.39696M17.6746 3.40863C18.4565 4.25678 18.8872 5.42921 18.8872 6.71006C18.8872 8.06151 18.3849 9.27017 17.2588 10.629L17.6746 3.40863ZM12.3878 2.91084C11.7777 3.38283 11.3526 3.97948 11.1035 4.39696M12.3878 2.91084L12.5407 3.10862M12.3878 2.91084L12.5408 3.10858C12.5407 3.10859 12.5407 3.1086 12.5407 3.10862M11.1035 4.39696L11.3181 4.52509C11.5585 4.1223 11.9645 3.55436 12.5407 3.10862M11.1035 4.39696L11.3181 4.52509C11.1449 4.81525 10.8379 4.98978 10.5 4.98978C10.1621 4.98978 9.85507 4.81525 9.68187 4.52509L9.68184 4.52503C9.44159 4.12229 9.03562 3.55436 8.45928 3.10862C7.81725 2.61217 7.09536 2.36299 6.3078 2.36299C5.22364 2.36299 4.23159 2.79472 3.50923 3.57808C2.7747 4.37484 2.36285 5.48451 2.36285 6.71006C2.36285 7.98744 2.83326 9.14159 3.9338 10.4695L3.9338 10.4695C5.00515 11.7623 6.60434 13.1262 8.48452 14.7286L8.48697 14.7306L8.48909 14.7324C9.09788 15.2513 9.78335 15.8355 10.4987 16.4589C11.218 15.8343 11.9046 15.2491 12.5148 14.7292C14.3953 13.1265 15.9948 11.7625 17.0663 10.4695C18.1667 9.1416 18.6372 7.98745 18.6372 6.71006C18.6372 5.48451 18.2253 4.37484 17.4908 3.57808C16.7686 2.79473 15.7764 2.36299 14.6923 2.36299C13.9046 2.36299 13.1827 2.61218 12.5407 3.10862M7.44099 15.9583L7.44098 15.9583L7.44289 15.96C8.09588 16.5164 8.83474 17.1461 9.60093 17.8161C9.84979 18.034 10.1691 18.1539 10.5 18.1539C10.8308 18.1539 11.1502 18.034 11.3989 17.8164C12.1669 17.1448 12.9069 16.5141 13.561 15.9568L13.561 15.9568L13.576 15.944C15.478 14.323 17.1443 12.903 18.3082 11.4986C19.6213 9.91418 20.25 8.38873 20.25 6.71006C20.25 5.09213 19.6951 3.58954 18.6767 2.48481L18.4929 2.65427L18.6767 2.4848C17.6452 1.36607 16.2286 0.75 14.6923 0.75C13.5391 0.75 12.4811 1.11581 11.5541 1.83274C11.1707 2.12925 10.8184 2.47921 10.5 2.87774C10.1817 2.47919 9.82931 2.12925 9.44604 1.83277L9.44602 1.83275C8.51903 1.11582 7.46105 0.75 6.3078 0.75C4.77145 0.75 3.35495 1.36607 2.32348 2.4848L2.32347 2.48481C1.30503 3.58953 0.75 5.09212 0.75 6.71006C0.75 8.38875 1.37886 9.91419 2.69197 11.4987L2.69198 11.4987C3.85618 12.9034 5.52315 14.324 7.42609 15.9456L7.43765 15.9554L7.43955 15.9571L7.44099 15.9583Z" fill="#C6A464" stroke="#C6A464" stroke-width="0.5"/>
</svg>
