<svg width="31" height="31" viewBox="0 0 31 31" fill="none" xmlns="http://www.w3.org/2000/svg">
<path d="M15.5 30.3002C23.6738 30.3002 30.2999 23.674 30.2999 15.5002C30.2999 7.32638 23.6738 0.700195 15.5 0.700195C7.32614 0.700195 0.699951 7.32638 0.699951 15.5002C0.699951 23.674 7.32614 30.3002 15.5 30.3002Z" stroke="black" stroke-width="1.4"/>
<path d="M10.535 11.7448V19.6878C10.535 19.7832 10.5653 19.8612 10.626 19.9218C10.6953 19.9738 10.7733 19.9998 10.86 19.9998C10.9466 19.9998 11.0203 19.9738 11.081 19.9218C11.1416 19.8698 11.172 19.7918 11.172 19.6878V11.7448H12.771C12.8663 11.7448 12.94 11.7145 12.992 11.6538C13.0526 11.5932 13.083 11.5195 13.083 11.4328C13.083 11.2162 12.979 11.1078 12.771 11.1078H8.94896C8.85363 11.1078 8.77563 11.1425 8.71496 11.2118C8.66296 11.2725 8.63696 11.3462 8.63696 11.4328C8.63696 11.5195 8.66296 11.5932 8.71496 11.6538C8.77563 11.7145 8.85363 11.7448 8.94896 11.7448H10.535ZM20.9669 19.6748V11.4328C20.9669 11.3288 20.9366 11.2422 20.8759 11.1728C20.8239 11.1035 20.7589 11.0688 20.6809 11.0688C20.5596 11.0688 20.4556 11.1382 20.3689 11.2768L18.1069 14.9558L15.8449 11.2768C15.7669 11.1382 15.6672 11.0688 15.5459 11.0688C15.3552 11.0688 15.2599 11.1902 15.2599 11.4328V19.6748C15.2599 19.7788 15.2902 19.8612 15.3509 19.9218C15.4115 19.9738 15.4852 19.9998 15.5719 19.9998C15.7885 19.9998 15.8969 19.8915 15.8969 19.6748V12.5638L17.8339 15.7228C17.9119 15.8528 18.0029 15.9178 18.1069 15.9178C18.2109 15.9178 18.3019 15.8528 18.3799 15.7228L20.3299 12.5638V19.6748C20.3299 19.7788 20.3602 19.8612 20.4209 19.9218C20.4902 19.9738 20.5639 19.9998 20.6419 19.9998C20.8586 19.9998 20.9669 19.8915 20.9669 19.6748Z" fill="black"/>
<path d="M10.535 11.7448H11.035V11.2448H10.535V11.7448ZM10.626 19.9218L10.2724 20.2754L10.2975 20.3005L10.326 20.3218L10.626 19.9218ZM11.081 19.9218L11.4064 20.3014L11.081 19.9218ZM11.172 11.7448V11.2448H10.672V11.7448H11.172ZM12.992 11.6538L12.6384 11.3003L12.6248 11.3139L12.6123 11.3284L12.992 11.6538ZM8.71496 11.2118L8.33866 10.8826L8.33533 10.8865L8.71496 11.2118ZM8.71496 11.6538L8.33533 11.9792L8.34783 11.9938L8.36141 12.0074L8.71496 11.6538ZM10.035 11.7448V19.6878H11.035V11.7448H10.035ZM10.035 19.6878C10.035 19.8996 10.1071 20.1101 10.2724 20.2754L10.9795 19.5683C10.9969 19.5857 11.0131 19.6094 11.0237 19.6366C11.0339 19.6629 11.035 19.6821 11.035 19.6878H10.035ZM10.326 20.3218C10.4818 20.4387 10.6651 20.4998 10.86 20.4998V19.4998C10.8674 19.4998 10.8799 19.5011 10.8946 19.506C10.9093 19.5109 10.92 19.5174 10.926 19.5218L10.326 20.3218ZM10.86 20.4998C11.0551 20.4998 11.2471 20.4379 11.4064 20.3014L10.7556 19.5422C10.771 19.529 10.7911 19.5169 10.8138 19.5088C10.8359 19.501 10.8528 19.4998 10.86 19.4998V20.4998ZM11.4064 20.3014C11.6092 20.1276 11.672 19.8908 11.672 19.6878H10.672C10.672 19.6924 10.6712 19.674 10.6832 19.6431C10.6964 19.6092 10.7204 19.5723 10.7556 19.5422L11.4064 20.3014ZM11.672 19.6878V11.7448H10.672V19.6878H11.672ZM11.172 12.2448H12.771V11.2448H11.172V12.2448ZM12.771 12.2448C12.9813 12.2448 13.2061 12.1723 13.3716 11.9792L12.6123 11.3284C12.6376 11.299 12.6709 11.2747 12.7073 11.2598C12.7415 11.2457 12.7659 11.2448 12.771 11.2448V12.2448ZM13.3455 12.0074C13.501 11.8519 13.583 11.6506 13.583 11.4328H12.583C12.583 11.4166 12.5861 11.3914 12.5979 11.3627C12.6097 11.3339 12.6257 11.313 12.6384 11.3003L13.3455 12.0074ZM13.583 11.4328C13.583 11.2524 13.54 11.0244 13.3657 10.8428C13.1877 10.6575 12.9574 10.6078 12.771 10.6078V11.6078C12.7926 11.6078 12.7182 11.6124 12.6443 11.5354C12.574 11.4621 12.583 11.3966 12.583 11.4328H13.583ZM12.771 10.6078H8.94896V11.6078H12.771V10.6078ZM8.94896 10.6078C8.71518 10.6078 8.49799 10.7005 8.33868 10.8826L9.09125 11.5411C9.07764 11.5566 9.05449 11.5763 9.02203 11.5908C8.99001 11.605 8.96305 11.6078 8.94896 11.6078V10.6078ZM8.33533 10.8865C8.19885 11.0457 8.13696 11.2377 8.13696 11.4328H9.13696C9.13696 11.44 9.13577 11.4569 9.12796 11.479C9.11994 11.5017 9.10783 11.5218 9.09459 11.5372L8.33533 10.8865ZM8.13696 11.4328C8.13696 11.628 8.19885 11.82 8.33533 11.9792L9.09459 11.3284C9.10783 11.3439 9.11994 11.364 9.12796 11.3867C9.13577 11.4088 9.13696 11.4257 9.13696 11.4328H8.13696ZM8.36141 12.0074C8.52668 12.1727 8.73717 12.2448 8.94896 12.2448V11.2448C8.95474 11.2448 8.97395 11.2459 9.00018 11.2561C9.02745 11.2667 9.05109 11.2829 9.06851 11.3003L8.36141 12.0074ZM8.94896 12.2448H10.535V11.2448H8.94896V12.2448ZM20.8759 11.1728L20.4759 11.4728L20.4872 11.4879L20.4996 11.5021L20.8759 11.1728ZM20.3689 11.2768L19.9449 11.0118L19.943 11.015L20.3689 11.2768ZM18.1069 14.9558L17.6809 15.2177L18.1069 15.9105L18.5328 15.2177L18.1069 14.9558ZM15.8449 11.2768L15.4091 11.522L15.4138 11.5304L15.4189 11.5387L15.8449 11.2768ZM15.3509 19.9218L14.9973 20.2754L15.0109 20.2889L15.0255 20.3014L15.3509 19.9218ZM15.8969 12.5638L16.3231 12.3025L15.3969 10.7919V12.5638H15.8969ZM17.8339 15.7228L18.2627 15.4656L18.2601 15.4615L17.8339 15.7228ZM18.3799 15.7228L17.9544 15.4602L17.9511 15.4656L18.3799 15.7228ZM20.3299 12.5638H20.8299V10.802L19.9044 12.3012L20.3299 12.5638ZM20.4209 19.9218L20.0673 20.2754L20.0925 20.3005L20.1209 20.3218L20.4209 19.9218ZM21.4669 19.6748V11.4328H20.4669V19.6748H21.4669ZM21.4669 11.4328C21.4669 11.2244 21.4029 11.0159 21.2522 10.8436L20.4996 11.5021C20.488 11.4888 20.4782 11.4722 20.4722 11.455C20.4665 11.4387 20.4669 11.4297 20.4669 11.4328H21.4669ZM21.2759 10.8728C21.1415 10.6937 20.9354 10.5688 20.6809 10.5688V11.5688C20.6428 11.5688 20.597 11.5596 20.5528 11.536C20.5104 11.5134 20.4861 11.4865 20.4759 11.4728L21.2759 10.8728ZM20.6809 10.5688C20.3294 10.5688 20.0874 10.7838 19.9449 11.0118L20.7929 11.5418C20.8097 11.515 20.8115 11.522 20.7892 11.5369C20.7775 11.5447 20.7609 11.5534 20.7402 11.5597C20.7193 11.5662 20.6989 11.5688 20.6809 11.5688V10.5688ZM19.943 11.015L17.6809 14.694L18.5328 15.2177L20.7948 11.5387L19.943 11.015ZM18.5328 14.694L16.2708 11.015L15.4189 11.5387L17.6809 15.2177L18.5328 14.694ZM16.2806 11.0317C16.1458 10.792 15.9044 10.5688 15.5459 10.5688V11.5688C15.5279 11.5688 15.5062 11.5662 15.4831 11.5589C15.46 11.5517 15.4408 11.5415 15.4261 11.5313C15.3979 11.5117 15.396 11.4988 15.4091 11.522L16.2806 11.0317ZM15.5459 10.5688C15.337 10.5688 15.1029 10.6414 14.9382 10.8509C14.7916 11.0375 14.7599 11.2596 14.7599 11.4328H15.7599C15.7599 11.3634 15.7758 11.4035 15.7245 11.4688C15.6959 11.5052 15.6574 11.5343 15.616 11.5519C15.5776 11.5682 15.5504 11.5688 15.5459 11.5688V10.5688ZM14.7599 11.4328V19.6748H15.7599V11.4328H14.7599ZM14.7599 19.6748C14.7599 19.8814 14.8236 20.1016 14.9973 20.2754L15.7044 19.5683C15.7264 19.5903 15.7425 19.6166 15.7518 19.6417C15.7604 19.6651 15.7599 19.6785 15.7599 19.6748H14.7599ZM15.0255 20.3014C15.1847 20.4379 15.3767 20.4998 15.5719 20.4998V19.4998C15.579 19.4998 15.5959 19.501 15.618 19.5088C15.6407 19.5169 15.6608 19.529 15.6763 19.5422L15.0255 20.3014ZM15.5719 20.4998C15.7573 20.4998 15.9882 20.4531 16.1692 20.2721C16.3502 20.0911 16.3969 19.8603 16.3969 19.6748H15.3969C15.3969 19.7061 15.3894 19.6377 15.4621 19.565C15.5347 19.4924 15.6031 19.4998 15.5719 19.4998V20.4998ZM16.3969 19.6748V12.5638H15.3969V19.6748H16.3969ZM15.4706 12.8252L17.4076 15.9842L18.2601 15.4615L16.3231 12.3025L15.4706 12.8252ZM17.4051 15.9801C17.5283 16.1854 17.7543 16.4178 18.1069 16.4178V15.4178C18.134 15.4178 18.1622 15.4222 18.1894 15.4313C18.2163 15.4403 18.237 15.452 18.2513 15.4622C18.2777 15.4811 18.2782 15.4915 18.2626 15.4656L17.4051 15.9801ZM18.1069 16.4178C18.4594 16.4178 18.6854 16.1854 18.8086 15.9801L17.9511 15.4656C17.9356 15.4915 17.9361 15.4811 17.9625 15.4622C17.9767 15.452 17.9974 15.4403 18.0243 15.4313C18.0516 15.4222 18.0798 15.4178 18.1069 15.4178V16.4178ZM18.8054 15.9855L20.7554 12.8265L19.9044 12.3012L17.9544 15.4602L18.8054 15.9855ZM19.8299 12.5638V19.6748H20.8299V12.5638H19.8299ZM19.8299 19.6748C19.8299 19.8814 19.8936 20.1016 20.0673 20.2754L20.7744 19.5683C20.7965 19.5903 20.8126 19.6166 20.8218 19.6417C20.8304 19.6651 20.8299 19.6785 20.8299 19.6748H19.8299ZM20.1209 20.3218C20.2667 20.4311 20.4437 20.4998 20.6419 20.4998V19.4998C20.6597 19.4998 20.678 19.503 20.6946 19.5088C20.7105 19.5145 20.7193 19.5207 20.7209 19.5218L20.1209 20.3218ZM20.6419 20.4998C20.8273 20.4998 21.0582 20.4531 21.2392 20.2721C21.4202 20.0911 21.4669 19.8603 21.4669 19.6748H20.4669C20.4669 19.7061 20.4594 19.6377 20.5321 19.565C20.6048 19.4924 20.6732 19.4998 20.6419 19.4998V20.4998Z" fill="black"/>
</svg>
