<svg width="31" height="31" viewBox="0 0 31 31" fill="none" xmlns="http://www.w3.org/2000/svg">
<path d="M15.5 30.3002C23.6738 30.3002 30.2999 23.674 30.2999 15.5002C30.2999 7.32638 23.6738 0.700195 15.5 0.700195C7.32614 0.700195 0.699951 7.32638 0.699951 15.5002C0.699951 23.674 7.32614 30.3002 15.5 30.3002Z" stroke="black" stroke-width="1.4"/>
<path d="M20.0833 14.5833H16.4167V10.9167C16.4167 10.4107 16.0069 10 15.5 10C14.9931 10 14.5833 10.4107 14.5833 10.9167V14.5833H10.9167C10.4098 14.5833 10 14.994 10 15.5C10 16.006 10.4098 16.4167 10.9167 16.4167H14.5833V20.0833C14.5833 20.5893 14.9931 21 15.5 21C16.0069 21 16.4167 20.5893 16.4167 20.0833V16.4167H20.0833C20.5902 16.4167 21 16.006 21 15.5C21 14.994 20.5902 14.5833 20.0833 14.5833Z" fill="black"/>
</svg>
